Coordinates
version=1
nRows=22
nColumns=24
inDegrees=yes

Units are S.I. units (second, meters, Newtons, ...)
Angles are in degrees.

endheader
time	pelvis_tilt	pelvis_list	pelvis_rotation	pelvis_tx	pelvis_ty	pelvis_tz	hip_flexion_r	hip_adduction_r	hip_rotation_r	knee_angle_r	ankle_angle_r	subtalar_angle_r	mtp_angle_r	hip_flexion_l	hip_adduction_l	hip_rotation_l	knee_angle_l	ankle_angle_l	subtalar_angle_l	mtp_angle_l	lumbar_extension	lumbar_bending	lumbar_rotation
      0.87050000	      2.94814155	     -5.66475795	     10.33766715	     -0.52465983	      1.03888258	      0.33251192	      7.26117228	     11.20410230	     -5.29907594	    -13.61937422	      0.00507825	    -14.83743651	      4.57113651	     11.54387307	     -8.18342604	      2.15994960	    -67.13410913	     -8.90591335	     -4.43595990	     -0.54739010	     -4.98343278	      3.50598791	     -4.60453274
      0.87466667	      2.94668250	     -5.53888897	     10.36159450	     -0.51981173	      1.03959845	      0.33265220	      6.80814421	     11.14300801	     -5.27129946	    -13.35414297	      0.13662445	    -14.74727758	      4.57644569	     12.13604353	     -8.02263221	      2.15577837	    -67.13393080	     -7.90594526	     -4.61798953	     -0.65500765	     -5.03257691	      3.34431322	     -4.50429386
      0.87883333	      2.93408877	     -5.40473337	     10.37057242	     -0.51498255	      1.04028848	      0.33278209	      6.36877117	     11.06989815	     -5.23720449	    -13.09350818	      0.23074132	    -14.69413775	      4.57864116	     12.72106810	     -7.84092778	      2.13427923	    -67.06585761	     -7.03707124	     -4.97285700	     -0.68796314	     -5.08336365	      3.18206129	     -4.45600634
      0.88300000	      2.90578501	     -5.28146738	     10.35289825	     -0.51018533	      1.04091427	      0.33297504	      5.95710044	     11.00928445	     -5.17527646	    -12.85464975	      0.36631609	    -14.59731658	      4.58146268	     13.31482647	     -7.67708410	      2.09393823	    -66.96401783	     -6.08249461	     -5.10105917	     -0.82164915	     -5.15643627	      3.01957519	     -4.31324953
      0.88716667	      2.90045705	     -5.13853257	     10.33014466	     -0.50540016	      1.04158601	      0.33313707	      5.51192420	     10.92960001	     -5.10848269	    -12.60290079	      0.46706536	    -14.52903075	      4.58149052	     13.85907818	     -7.48766071	      2.03887091	    -66.78510211	     -5.27520857	     -5.40575728	     -0.92125766	     -5.24360934	      2.85462705	     -4.22273617
      0.89133333	      2.91389825	     -5.00191487	     10.29547883	     -0.50058110	      1.04227388	      0.33331513	      5.03204750	     10.86273111	     -5.02450505	    -12.32301871	      0.58782162	    -14.43627035	      4.46707781	     14.36264144	     -7.31180084	      1.97142954	    -66.55149055	     -4.40802184	     -5.59756595	     -4.23838169	     -5.31930442	      2.68723205	     -4.04131358
      0.89550000	      2.90445202	     -4.85704916	     10.24976033	     -0.49577315	      1.04292222	      0.33349394	      4.58225030	     10.78060437	     -4.94410638	    -12.05652126	      0.67863127	    -14.37553943	      4.46854341	     14.86969961	     -7.11842836	      1.89295984	    -66.24355675	     -3.72238512	     -5.91965214	     -4.22933800	     -5.37934096	      2.51274789	     -3.99645811
      0.89966667	      2.93679775	     -4.68917449	     10.17084761	     -0.49099666	      1.04361921	      0.33373835	      4.08300929	     10.68632351	     -4.80326443	    -11.79439769	      0.80665432	    -14.29241349	      4.46760918	     15.29977430	     -6.91643564	      1.78339988	    -65.86773695	     -3.04567677	     -6.14821166	     -4.24060504	     -5.53539163	      2.30577463	     -3.81733789
      0.90383333	      2.96921512	     -4.52750630	     10.08886486	     -0.48620436	      1.04430622	      0.33395467	      3.58024604	     10.59411765	     -4.67623426	    -11.52175581	      0.90980687	    -14.21290461	      4.46131628	     15.71128418	     -6.71713216	      1.67161940	    -65.43015958	     -2.43991571	     -6.42263309	     -4.26827896	     -5.66346224	      2.11920946	     -3.64966247
      0.90800000	      2.98036377	     -4.37212310	      9.98968021	     -0.48143168	      1.04491832	      0.33420459	      3.10819590	     10.50486836	     -4.53106771	    -11.26083217	      1.01564143	    -14.14496767	      4.45247111	     16.13312311	     -6.52359603	      1.54784551	    -64.94490186	     -1.86724282	     -6.69353218	     -4.30153507	     -5.76759606	      1.92936274	     -3.49835796
      0.91216667	      2.97797556	     -4.22818706	      9.88690854	     -0.47664730	      1.04548556	      0.33443934	      2.65574418	     10.42022368	     -4.41382659	    -11.00407171	      1.10053645	    -14.07538101	      4.44827962	     16.55617571	     -6.34035378	      1.41892274	    -64.40980507	     -1.31803805	     -6.97143143	     -4.31233197	     -5.83944979	      1.75657934	     -3.42138322
      0.91633333	      3.02783995	     -4.04192335	      9.74961292	     -0.47191300	      1.04614017	      0.33472506	      2.14216113	     10.30085824	     -4.21638976	    -10.75801814	      1.21888586	    -14.00146024	      4.43736928	     16.87862607	     -6.12252217	      1.26574489	    -63.78516341	     -0.82792923	     -7.20546668	     -4.34432027	     -6.03370164	      1.55045853	     -3.22231007
      0.92050000	      3.04459504	     -3.87255753	      9.61503907	     -0.46715566	      1.04670916	      0.33499459	      1.66469334	     10.18974717	     -4.04520577	    -10.50288378	      1.32228095	    -13.92465211	      4.42431431	     17.22746511	     -5.91593495	      1.11644888	    -63.11586937	     -0.37044989	     -7.44562799	     -4.37690537	     -6.14681980	      1.35073719	     -3.04585024
      0.92466667	      3.08427468	     -3.70613064	      9.46379402	     -0.46240800	      1.04728264	      0.33529384	      1.16627835	     10.08327596	     -3.86401452	    -10.25316824	      1.43042608	    -13.84463637	      4.40837836	     17.52992175	     -5.72477198	      0.95053779	    -62.38873460	      0.07003235	     -7.66487835	     -4.41278906	     -6.29246843	      1.15255973	     -2.85639693
      0.92883333	      3.13123970	     -3.54486518	      9.31601681	     -0.45764209	      1.04784127	      0.33558713	      0.65103070	      9.98198470	     -3.67932333	     -9.98187425	      1.54231221	    -13.75965963	      4.38113629	     17.80653573	     -5.53974773	      0.79105016	    -61.60394939	      0.46387282	     -7.86621070	     -4.46724532	     -6.42455003	      0.95473485	     -2.61848697
      0.93300000	      3.14124837	     -3.37286778	      9.13888179	     -0.45291353	      1.04832630	      0.33590151	      0.20038623	      9.85550491	     -3.49023540	     -9.76549157	      1.64638385	    -13.67804699	      4.36176904	     18.09719990	     -5.33753098	      0.61228091	    -60.76073296	      0.86841466	     -8.04732081	     -4.50100008	     -6.54771045	      0.74937378	     -2.47265697
      0.93716667	      3.17555768	     -3.21205729	      8.96578509	     -0.44817755	      1.04881050	      0.33620513	     -0.28377192	      9.74220790	     -3.29979898	     -9.52731343	      1.75765259	    -13.58438169	      4.33946123	     18.34525003	     -5.15280221	      0.43863084	    -59.86295499	      1.24066774	     -8.20861891	     -4.53658910	     -6.68237429	      0.55827801	     -2.28746157
      0.94133333	      3.22364782	     -3.05404323	      8.79302896	     -0.44342284	      1.04928705	      0.33650955	     -0.78982268	      9.63173691	     -3.10958934	     -9.27328375	      1.87537479	    -13.47780234	      4.30034699	     18.55683839	     -4.97310132	      0.27148025	    -58.90558936	      1.57124667	     -8.35873056	     -4.59417289	     -6.81996253	      0.36776316	     -2.02456770
      0.94550000	      3.23800262	     -2.89964463	      8.60325485	     -0.43867657	      1.04968054	      0.33682190	     -1.24279445	      9.51405545	     -2.91715548	     -9.05326712	      1.99871469	    -13.38094408	      4.26436024	     18.78385265	     -4.79542648	      0.09206986	    -57.89529497	      1.90186096	     -8.47201513	     -4.64181394	     -6.91740258	      0.18113247	     -1.83940180
      0.94966667	      3.25109283	     -2.74605916	      8.41280922	     -0.43394195	      1.05004126	      0.33711951	     -1.69214792	      9.39197668	     -2.72503979	     -8.83486690	      2.11416923	    -13.25851378	      4.21704095	     18.99198083	     -4.61176905	     -0.07323705	    -56.82879866	      2.21244295	     -8.58509577	     -4.70034198	     -7.03375802	     -0.00763326	     -1.61772175
      0.95383333	      3.27179169	     -2.59043516	      8.21322200	     -0.42918721	      1.05039298	      0.33741844	     -2.14789814	      9.26439298	     -2.53386518	     -8.62258717	      2.24282339	    -13.14065775	      4.16971781	     19.16345802	     -4.43072702	     -0.24618858	    -55.69718965	      2.49395673	     -8.67205265	     -4.75534071	     -7.14377982	     -0.19687280	     -1.42109363
      0.95800000	      3.29189803	     -2.44442695	      8.01273542	     -0.42443134	      1.05070020	      0.33770905	     -2.59790816	      9.14316865	     -2.34889289	     -8.41577728	      2.37931870	    -13.02411650	      4.12505366	     19.31720350	     -4.26010511	     -0.41571818	    -54.51285264	      2.75292114	     -8.73727022	     -4.80477495	     -7.24078586	     -0.37407389	     -1.23402928
